<svg width="61" height="60" viewBox="0 0 61 60" fill="none" xmlns="http://www.w3.org/2000/svg">
<rect x="0.782227" width="59.5777" height="59.5777" rx="8.27468" fill="#1877F2"/>
<g clip-path="url(#clip0_1_119)">
<path d="M49.3979 30C49.3979 19.4901 40.8778 10.97 30.3679 10.97C19.858 10.97 11.3379 19.4901 11.3379 30C11.3379 39.4983 18.2969 47.3712 27.3945 48.7988V35.5008H22.5626V30H27.3945V25.8074C27.3945 21.038 30.2356 18.4036 34.5824 18.4036C36.6644 18.4036 38.8422 18.7752 38.8422 18.7752V23.4584H36.4426C34.0786 23.4584 33.3413 24.9254 33.3413 26.4304V30H38.6192L37.7755 35.5008H33.3413V48.7988C42.4389 47.3712 49.3979 39.4985 49.3979 30Z" fill="#1877F2"/>
<path d="M37.7753 35.5008L38.6191 30H33.3412V26.4304C33.3412 24.9252 34.0785 23.4584 36.4425 23.4584H38.8421V18.7752C38.8421 18.7752 36.6643 18.4036 34.5822 18.4036C30.2355 18.4036 27.3943 21.038 27.3943 25.8074V30H22.5625V35.5008H27.3943V48.7988C28.378 48.9529 29.3721 49.0302 30.3678 49.03C31.3634 49.0303 32.3576 48.953 33.3412 48.7988V35.5008H37.7753Z" fill="white"/>
</g>
<defs>
<clipPath id="clip0_1_119">
<rect width="38.06" height="38.06" fill="white" transform="translate(11.3379 10.97)"/>
</clipPath>
</defs>
</svg>
