<svg width="60" height="60" viewBox="0 0 60 60" fill="none" xmlns="http://www.w3.org/2000/svg">
<circle cx="30" cy="30" r="30" fill="white"/>
<path d="M22.8369 32.3664H28.6669C29.1017 32.3664 29.6921 33.3648 30.5605 33.982V33.2716C30.5605 33.2716 30.5325 32.8504 30.6997 32.5956C30.8693 32.34 31.2229 32.272 31.3333 32.272H37.1633C37.1633 32.272 38.9237 31.976 40.8809 31.0544L19.3633 31.26C21.2201 32.0928 22.8369 32.3664 22.8369 32.3664Z" fill="#EB1C25"/>
<path d="M16.7476 32.0444C16.6031 31.9343 16.4615 31.8202 16.3232 31.7024C16.422 31.8608 16.5668 31.9836 16.7476 32.0444ZM17.8156 16.2244H42.0988V30.4308C42.95 29.9588 43.4072 29.6372 43.7204 29.4312V15.4112C43.7202 15.196 43.6346 14.9896 43.4823 14.8375C43.3301 14.6854 43.1236 14.6 42.9084 14.6H17.0036C16.5544 14.6 16.1904 14.964 16.1904 15.4112V29.4672C16.4988 29.6616 16.9416 29.9876 17.8156 30.4752V16.2244Z" fill="#EB1C25"/>
<path d="M45.1164 29.1912C44.9072 29.0244 44.6176 29.0252 44.158 29.1912C44.024 29.24 43.8884 29.3212 43.72 29.4312C43.4068 29.6372 42.95 29.9588 42.0984 30.4308C41.8356 30.5748 41.5492 30.73 41.202 30.904C41.0932 30.9584 40.9884 31.0028 40.8808 31.0548C38.9236 31.9764 37.1632 32.2724 37.1632 32.2724H31.3332C31.2228 32.2724 30.8692 32.3404 30.6996 32.596C30.5324 32.8512 30.5604 33.272 30.5604 33.272V33.9824C30.7708 34.1316 30.9932 34.2652 31.2384 34.3496C32.996 34.9488 34.1852 34.4264 34.704 33.6984C35.3108 32.8448 35.6196 32.3668 36.286 32.6164C36.9524 32.866 36.286 34.4884 35.454 35.3216C34.62 36.1552 33.6204 36.8212 32.206 36.8212C31.6116 36.8212 31.0356 36.732 30.5604 36.6308V42.6832C30.5604 44.3912 32.3756 45.304 33.6236 45.304C34.8712 45.304 37.3704 44.5968 38.5784 41.5988C39.7852 38.6016 38.4964 34.6464 38.4964 34.6464C38.4964 34.6464 40.4516 33.77 42.4928 32.4808C44.532 31.1908 45.0748 29.9824 45.1164 29.8128C45.1564 29.642 45.3228 29.3584 45.1164 29.1912Z" fill="#EB1C25"/>
<path d="M35.4543 35.3212C36.2863 34.488 36.9527 32.8656 36.2863 32.616C35.6199 32.3664 35.3111 32.8444 34.7043 33.698C34.1855 34.426 32.9963 34.9484 31.2387 34.3492C30.9935 34.2648 30.7711 34.1312 30.5607 33.982C29.6927 33.3648 29.1019 32.3664 28.6671 32.3664H22.8371C22.8371 32.3664 21.2199 32.0928 19.3635 31.26C19.1771 31.176 18.9895 31.0928 18.7991 30.9972C18.4672 30.8308 18.1392 30.6566 17.8155 30.4748C16.9415 29.9872 16.4987 29.6616 16.1903 29.4668C16.0619 29.3856 15.9531 29.3248 15.8419 29.2848C15.3843 29.1184 15.0927 29.1184 14.8843 29.2848C14.6771 29.452 14.8427 29.736 14.8843 29.906C14.9163 30.036 15.2495 30.7796 16.3227 31.702C16.697 32.02 17.093 32.3115 17.5079 32.5744C19.5471 33.8652 21.5043 34.7392 21.5043 34.7392C21.5043 34.7392 20.2135 38.6936 21.4223 41.6916C22.6295 44.6892 25.1275 45.3996 26.3763 45.3996C27.6255 45.3996 29.4407 44.4808 29.4407 42.774V36.3216C29.4407 36.3216 29.9015 36.4896 30.5603 36.63C31.0355 36.7312 31.6115 36.8204 32.2059 36.8204C33.6207 36.8208 34.6203 36.1548 35.4543 35.3212ZM34.4071 23.7524C33.4462 23.7525 32.5248 24.1343 31.8453 24.8136C31.1659 25.493 30.7841 26.4144 30.7839 27.3752C30.7839 29.3748 32.4059 30.9976 34.4071 30.9976C36.4063 30.9976 38.0279 29.3748 38.0279 27.3752C38.0279 25.3752 36.4063 23.7524 34.4071 23.7524Z" fill="#EB1C25"/>
<path d="M25.8175 23.7524C23.8175 23.7524 22.1963 25.3752 22.1963 27.3752C22.1963 29.3748 23.8171 30.9976 25.8175 30.9976C27.8187 30.9976 29.4407 29.3748 29.4407 27.3752C29.4407 25.3752 27.8187 23.7524 25.8175 23.7524Z" fill="#EB1C25"/>
</svg>
