<svg width="20" height="21" viewBox="0 0 20 21" fill="none" xmlns="http://www.w3.org/2000/svg">
<path d="M10 1.93188C5.1625 1.93188 1.25 5.86938 1.25 10.7319C1.25 15.1194 4.45 18.7694 8.6375 19.4319V13.2819H6.4125V10.7319H8.6375V8.79438C8.6375 6.58188 9.95 5.36938 11.9375 5.36938C12.9 5.36938 13.9 5.54438 13.9 5.54438V7.70688H12.8C11.7125 7.70688 11.375 8.38188 11.375 9.08188V10.7319H13.8L13.4125 13.2819H11.375V19.4319C15.5625 18.7694 18.7625 15.1319 18.7625 10.7319C18.7625 5.86938 14.85 1.93188 10.0125 1.93188H10Z" fill="#EB1C25"/>
</svg>
