<svg width="60" height="61" viewBox="0 0 60 61" fill="none" xmlns="http://www.w3.org/2000/svg">
<rect x="0.217773" y="0.789551" width="59.5777" height="59.5777" rx="8.27468" fill="#F5F5F5"/>
<g clip-path="url(#clip0_1_249)">
<path d="M49.0917 22.6542C48.5684 17.551 45.1747 16.4774 42.187 15.9873C40.6868 15.7336 38.0162 15.5116 36.294 15.4481C34.7938 15.353 31.2701 15.3054 30.2124 15.3054C29.1705 15.3054 25.6293 15.353 24.1307 15.4481C22.4243 15.5116 19.7379 15.7336 18.2377 15.9873C15.2516 16.4932 11.8532 17.5636 11.333 22.6542C11.2061 24.0449 11.1744 25.8623 11.1903 27.805C11.2379 31.0258 11.5075 33.2063 11.666 34.7239C11.777 35.7658 12.2021 38.8788 12.7555 40.49C13.5135 42.7023 14.2081 43.3493 15.0137 44.0138C16.4997 45.2142 18.9323 45.5933 19.4382 45.6884C22.1865 46.18 27.748 46.272 30.1965 46.272C32.645 46.272 38.205 46.1927 40.9548 45.6884C41.4765 45.5933 43.9092 45.2285 45.3793 44.0138C46.1849 43.3493 46.8795 42.7023 47.6375 40.49C48.1925 38.8788 48.6334 35.7658 48.7444 34.7239C48.903 33.2063 49.1869 31.0258 49.2186 27.805C49.282 25.8623 49.2344 24.0449 49.0917 22.6542ZM47.2268 31.2177C46.9255 35.2933 46.5639 37.7259 46.0422 39.4957C45.5823 41.0435 45.032 42.0695 44.1947 42.8133C42.8197 44.0613 40.9231 44.3293 39.8178 44.4879C37.4168 44.8527 33.3872 44.9637 30.2124 44.9637C27.0375 44.9637 23.0079 44.8368 20.607 44.4879C19.5016 44.3293 17.605 44.0613 16.2301 42.8133C15.4086 42.0695 14.8409 41.0276 14.3984 39.4941C13.8767 37.7418 13.5135 35.2917 13.2138 31.2161C13.0394 28.7691 13.0711 24.7871 13.3407 22.6526C13.7498 19.4635 15.3309 17.8665 18.7119 17.2671C20.2914 16.9816 22.4227 16.7755 24.4304 16.6803C26.0416 16.5693 28.7122 16.5218 30.1965 16.5376C31.6808 16.5218 34.3514 16.5852 35.9626 16.6803C37.9845 16.7755 40.1016 16.9816 41.6811 17.2671C45.078 17.8665 46.659 19.4793 47.0539 22.6542C47.3695 24.7871 47.4155 28.7691 47.2268 31.2177ZM38.9788 17.9125C38.1098 21.8169 37.7625 23.6025 37.0505 26.4285C36.3717 29.1482 35.8341 31.6585 34.9334 32.8749C34.0025 34.1071 32.7687 34.3767 31.9314 34.4702C31.489 34.5178 31.1734 34.5336 30.2409 34.5495C29.6715 34.5614 29.102 34.5349 28.5361 34.4702C27.6988 34.3751 26.4508 34.1071 25.5357 32.8749C24.6191 31.6585 24.0974 29.1482 23.4187 26.43C22.6733 23.6184 22.3435 21.8153 21.4586 17.9141C21.4586 17.9141 20.5895 17.9458 20.1947 17.9775C19.6729 18.0093 19.2622 18.0568 18.8197 18.1203C19.3637 26.6394 19.9171 35.6897 20.6054 43.6998C21.863 43.8579 23.1282 43.9473 24.3955 43.9678C24.9189 41.9601 25.5817 39.1786 26.3096 37.9939C26.9091 37.0297 27.8415 36.9203 28.3633 36.8569C29.1847 36.7459 29.8793 36.73 30.2108 36.73C30.5279 36.7142 31.221 36.73 32.0583 36.8569C32.5816 36.9362 33.5125 37.0313 34.1119 37.9939C34.8573 39.1786 35.5027 41.9585 36.0244 43.9662C36.0244 43.9662 36.5922 43.9503 37.8719 43.8869C38.5232 43.8584 39.1713 43.7949 39.8162 43.6966C40.5425 35.149 41.0611 26.6838 41.6018 18.1203C41.1578 18.0568 40.7486 18.0093 40.2269 17.9775C39.8622 17.9458 38.9788 17.9125 38.9788 17.9125Z" fill="black"/>
</g>
<defs>
<clipPath id="clip0_1_249">
<rect width="38.06" height="38.06" fill="white" transform="translate(11.1875 11.7595)"/>
</clipPath>
</defs>
</svg>
