<svg width="18" height="19" viewBox="0 0 18 19" fill="none" xmlns="http://www.w3.org/2000/svg">
<path d="M5.22 1.18188H12.78C15.3839 1.18188 17.5 3.29803 17.5 5.90189V13.4619C17.5 14.7137 17.0027 15.9143 16.1175 16.7994C15.2324 17.6846 14.0318 18.1819 12.78 18.1819H5.22C2.61614 18.1819 0.5 16.0657 0.5 13.4619V5.90189C0.5 4.65006 0.997284 3.44951 1.88246 2.56434C2.76763 1.67917 3.96818 1.18188 5.22 1.18188ZM5.04 1.98188C4.04809 1.98188 3.09681 2.37592 2.39542 3.07731C1.69403 3.77869 1.3 4.72997 1.3 5.72188V13.6419C1.3 15.709 2.97286 17.3819 5.04 17.3819H12.96C13.9519 17.3819 14.9032 16.9879 15.6046 16.2865C16.306 15.5851 16.7 14.6338 16.7 13.6419V5.72188C16.7 3.65474 15.0271 1.98188 12.96 1.98188H5.04ZM13.725 4.33188C13.8908 4.33188 14.0497 4.39773 14.1669 4.51494C14.2842 4.63215 14.35 4.79112 14.35 4.95688C14.35 5.12265 14.2842 5.28162 14.1669 5.39883C14.0497 5.51604 13.8908 5.58188 13.725 5.58188C13.5592 5.58188 13.4003 5.51604 13.2831 5.39883C13.1658 5.28162 13.1 5.12265 13.1 4.95688C13.1 4.79112 13.1658 4.63215 13.2831 4.51494C13.4003 4.39773 13.5592 4.33188 13.725 4.33188ZM9 5.68188C10.0609 5.68188 11.0783 6.10331 11.8284 6.85346C12.5786 7.6036 13 8.62102 13 9.68188C13 10.7428 12.5786 11.7602 11.8284 12.5103C11.0783 13.2605 10.0609 13.6819 9 13.6819C7.93913 13.6819 6.92172 13.2605 6.17157 12.5103C5.42143 11.7602 5 10.7428 5 9.68188C5 8.62102 5.42143 7.6036 6.17157 6.85346C6.92172 6.10331 7.93913 5.68188 9 5.68188ZM9 6.48188C8.15131 6.48188 7.33737 6.81903 6.73726 7.41914C6.13714 8.01926 5.8 8.83319 5.8 9.68188C5.8 10.5306 6.13714 11.3445 6.73726 11.9446C7.33737 12.5447 8.15131 12.8819 9 12.8819C9.84869 12.8819 10.6626 12.5447 11.2627 11.9446C11.8629 11.3445 12.2 10.5306 12.2 9.68188C12.2 8.83319 11.8629 8.01926 11.2627 7.41914C10.6626 6.81903 9.84869 6.48188 9 6.48188Z" stroke="#EB1C25"/>
</svg>
