<svg width="22" height="23" viewBox="0 0 22 23" fill="none" xmlns="http://www.w3.org/2000/svg">
<path d="M17.4167 3.43188C17.9029 3.43188 18.3692 3.62504 18.713 3.96886C19.0568 4.31267 19.25 4.77899 19.25 5.26522V18.0986C19.25 18.5848 19.0568 19.0511 18.713 19.3949C18.3692 19.7387 17.9029 19.9319 17.4167 19.9319H4.58333C4.0971 19.9319 3.63079 19.7387 3.28697 19.3949C2.94315 19.0511 2.75 18.5848 2.75 18.0986V5.26522C2.75 4.77899 2.94315 4.31267 3.28697 3.96886C3.63079 3.62504 4.0971 3.43188 4.58333 3.43188H17.4167ZM16.9583 17.6402V12.7819C16.9583 11.9893 16.6435 11.2292 16.0831 10.6688C15.5226 10.1084 14.7626 9.79355 13.97 9.79355C13.1908 9.79355 12.2833 10.2702 11.8433 10.9852V9.96772H9.28583V17.6402H11.8433V13.1211C11.8433 12.4152 12.4117 11.8377 13.1175 11.8377C13.4579 11.8377 13.7843 11.9729 14.025 12.2136C14.2656 12.4543 14.4008 12.7807 14.4008 13.1211V17.6402H16.9583ZM6.30667 8.52855C6.7151 8.52855 7.10681 8.3663 7.39561 8.0775C7.68442 7.78869 7.84667 7.39699 7.84667 6.98855C7.84667 6.13605 7.15917 5.43938 6.30667 5.43938C5.8958 5.43938 5.50177 5.6026 5.21124 5.89313C4.92072 6.18365 4.7575 6.57769 4.7575 6.98855C4.7575 7.84105 5.45417 8.52855 6.30667 8.52855ZM7.58083 17.6402V9.96772H5.04167V17.6402H7.58083Z" fill="#EB1C25"/>
</svg>
