<svg width="61" height="60" viewBox="0 0 61 60" fill="none" xmlns="http://www.w3.org/2000/svg">
<rect x="0.594727" width="59.5777" height="59.5777" rx="8.27468" fill="black"/>
<g clip-path="url(#clip0_1_138)">
<path d="M49.4147 23.1277L21.5681 34.9845C19.2589 35.9625 17.3197 36.4515 15.7507 36.4515C13.9744 36.4515 12.686 35.8293 11.8856 34.5848C11.3834 33.7855 11.2354 32.7715 11.4416 31.5429C11.6488 30.3143 12.1965 29.0043 13.0846 27.6128C13.8248 26.4868 15.0391 25.0065 16.7276 23.1721C16.1542 24.0737 15.734 25.0641 15.4842 26.103C15.0402 27.9977 15.4398 29.3891 16.6832 30.2773C17.2753 30.6917 18.0895 30.899 19.1256 30.899C19.9535 30.899 20.8861 30.7658 21.9233 30.4993L49.4147 23.1277Z" fill="white"/>
</g>
<defs>
<clipPath id="clip0_1_138">
<rect width="38.0635" height="38.0635" fill="white" transform="translate(11.3516 10.7571)"/>
</clipPath>
</defs>
</svg>
