<svg width="60" height="61" viewBox="0 0 60 61" fill="none" xmlns="http://www.w3.org/2000/svg">
<rect y="0.789551" width="59.5777" height="59.5777" rx="8.27468" fill="#FF0000"/>
<mask id="path-2-inside-1_1_192" fill="white">
<path d="M27.4384 31.5236H29.9162L28.6058 29.4154L26.2009 33.2271H25.1063L28.0316 28.6486C28.0958 28.556 28.1817 28.4805 28.2818 28.4288C28.3819 28.3771 28.4931 28.3507 28.6058 28.3518C28.8333 28.3518 29.0453 28.4598 29.1684 28.6409L32.1049 33.2271H31.0104L30.4942 32.3752H27.9852L27.4384 31.5236ZM38.8074 32.3752V28.3982H37.8787V32.7647C37.8787 32.8843 37.9251 32.9999 38.0137 33.0885C38.1024 33.1771 38.2219 33.2271 38.353 33.2271H42.5884L43.1358 32.3752H38.8074ZM23.4415 31.6625C24.3434 31.6625 25.0757 30.9343 25.0757 30.0324C25.0757 29.1306 24.3437 28.3982 23.4415 28.3982H19.3783V33.2274H20.3069V29.2498H23.38C23.8117 29.2498 24.1584 29.6007 24.1584 30.0321C24.1584 30.4636 23.8114 30.8144 23.38 30.8144L20.7616 30.8106L23.534 33.2271H24.8833L23.0178 31.6622L23.4415 31.6625ZM13.6631 33.2271C12.3301 33.2271 11.248 32.148 11.248 30.8144C11.248 29.4809 12.3298 28.3979 13.6631 28.3979H16.4697C17.8033 28.3979 18.8844 29.4812 18.8844 30.8144C18.8844 32.1477 17.8033 33.2271 16.4697 33.2271H13.6631ZM16.4073 32.3752C16.6124 32.3755 16.8157 32.3354 17.0053 32.2571C17.195 32.1788 17.3673 32.0639 17.5125 31.9189C17.6577 31.774 17.7729 31.6018 17.8516 31.4123C17.9302 31.2228 17.9707 31.0196 17.9707 30.8144C17.9708 30.609 17.9305 30.4056 17.852 30.2158C17.7734 30.026 17.6583 29.8535 17.5131 29.7081C17.3679 29.5628 17.1956 29.4475 17.0058 29.3688C16.8161 29.2901 16.6127 29.2496 16.4073 29.2495H13.7249C13.3102 29.2498 12.9125 29.4149 12.6194 29.7084C12.3264 30.0018 12.1618 30.3997 12.1621 30.8144C12.1621 31.0196 12.2026 31.2227 12.2812 31.4122C12.3597 31.6016 12.4749 31.7738 12.62 31.9187C12.7652 32.0637 12.9375 32.1786 13.1271 32.2569C13.3166 32.3352 13.5198 32.3754 13.7249 32.3752H16.4073ZM34.0439 33.2271C32.7106 33.2271 31.6277 32.148 31.6277 30.8144C31.6277 29.4809 32.7106 28.3979 34.0439 28.3979H37.3777L36.8339 29.2495H34.1058C33.6908 29.2498 33.2928 29.4147 32.9993 29.7081C32.7059 30.0015 32.5409 30.3994 32.5405 30.8144C32.5405 31.6776 33.2423 32.3752 34.1058 32.3752H37.4547L36.9076 33.2271H34.0439ZM45.4015 32.3752C45.0613 32.3754 44.7304 32.2644 44.4591 32.0591C44.1877 31.8539 43.9909 31.5656 43.8985 31.2382H47.868L48.4151 30.3866H43.8985C43.9916 30.0595 44.1886 29.7717 44.4598 29.5666C44.731 29.3614 45.0615 29.2502 45.4015 29.2495H48.1261L48.6774 28.3979H45.3397C44.0064 28.3979 42.9235 29.4812 42.9235 30.8144C42.9235 32.1477 44.0064 33.2271 45.3397 33.2271H48.2034L48.7508 32.3752H45.4015Z"/>
</mask>
<path d="M27.4384 31.5236H29.9162L28.6058 29.4154L26.2009 33.2271H25.1063L28.0316 28.6486C28.0958 28.556 28.1817 28.4805 28.2818 28.4288C28.3819 28.3771 28.4931 28.3507 28.6058 28.3518C28.8333 28.3518 29.0453 28.4598 29.1684 28.6409L32.1049 33.2271H31.0104L30.4942 32.3752H27.9852L27.4384 31.5236ZM38.8074 32.3752V28.3982H37.8787V32.7647C37.8787 32.8843 37.9251 32.9999 38.0137 33.0885C38.1024 33.1771 38.2219 33.2271 38.353 33.2271H42.5884L43.1358 32.3752H38.8074ZM23.4415 31.6625C24.3434 31.6625 25.0757 30.9343 25.0757 30.0324C25.0757 29.1306 24.3437 28.3982 23.4415 28.3982H19.3783V33.2274H20.3069V29.2498H23.38C23.8117 29.2498 24.1584 29.6007 24.1584 30.0321C24.1584 30.4636 23.8114 30.8144 23.38 30.8144L20.7616 30.8106L23.534 33.2271H24.8833L23.0178 31.6622L23.4415 31.6625ZM13.6631 33.2271C12.3301 33.2271 11.248 32.148 11.248 30.8144C11.248 29.4809 12.3298 28.3979 13.6631 28.3979H16.4697C17.8033 28.3979 18.8844 29.4812 18.8844 30.8144C18.8844 32.1477 17.8033 33.2271 16.4697 33.2271H13.6631ZM16.4073 32.3752C16.6124 32.3755 16.8157 32.3354 17.0053 32.2571C17.195 32.1788 17.3673 32.0639 17.5125 31.9189C17.6577 31.774 17.7729 31.6018 17.8516 31.4123C17.9302 31.2228 17.9707 31.0196 17.9707 30.8144C17.9708 30.609 17.9305 30.4056 17.852 30.2158C17.7734 30.026 17.6583 29.8535 17.5131 29.7081C17.3679 29.5628 17.1956 29.4475 17.0058 29.3688C16.8161 29.2901 16.6127 29.2496 16.4073 29.2495H13.7249C13.3102 29.2498 12.9125 29.4149 12.6194 29.7084C12.3264 30.0018 12.1618 30.3997 12.1621 30.8144C12.1621 31.0196 12.2026 31.2227 12.2812 31.4122C12.3597 31.6016 12.4749 31.7738 12.62 31.9187C12.7652 32.0637 12.9375 32.1786 13.1271 32.2569C13.3166 32.3352 13.5198 32.3754 13.7249 32.3752H16.4073ZM34.0439 33.2271C32.7106 33.2271 31.6277 32.148 31.6277 30.8144C31.6277 29.4809 32.7106 28.3979 34.0439 28.3979H37.3777L36.8339 29.2495H34.1058C33.6908 29.2498 33.2928 29.4147 32.9993 29.7081C32.7059 30.0015 32.5409 30.3994 32.5405 30.8144C32.5405 31.6776 33.2423 32.3752 34.1058 32.3752H37.4547L36.9076 33.2271H34.0439ZM45.4015 32.3752C45.0613 32.3754 44.7304 32.2644 44.4591 32.0591C44.1877 31.8539 43.9909 31.5656 43.8985 31.2382H47.868L48.4151 30.3866H43.8985C43.9916 30.0595 44.1886 29.7717 44.4598 29.5666C44.731 29.3614 45.0615 29.2502 45.4015 29.2495H48.1261L48.6774 28.3979H45.3397C44.0064 28.3979 42.9235 29.4812 42.9235 30.8144C42.9235 32.1477 44.0064 33.2271 45.3397 33.2271H48.2034L48.7508 32.3752H45.4015Z" fill="white"/>
<path d="M27.4384 31.5236V28.5236H21.9469L24.914 33.1445L27.4384 31.5236ZM29.9162 31.5236V34.5236H35.3132L32.4641 29.9399L29.9162 31.5236ZM28.6058 29.4154L31.1537 27.8317L28.6248 23.7632L26.0686 27.8146L28.6058 29.4154ZM26.2009 33.2271V36.2271H27.8553L28.7381 34.8279L26.2009 33.2271ZM25.1063 33.2271L22.5783 31.6119L19.6296 36.2271H25.1063V33.2271ZM28.0316 28.6486L25.5662 26.9393L25.534 26.9857L25.5036 27.0334L28.0316 28.6486ZM28.6058 28.3518L28.5742 31.3517L28.59 31.3518H28.6058V28.3518ZM29.1684 28.6409L31.6948 27.0232L31.6726 26.9884L31.6494 26.9543L29.1684 28.6409ZM32.1049 33.2271V36.2271H37.5881L34.6314 31.6094L32.1049 33.2271ZM31.0104 33.2271L28.4447 34.7818L29.3204 36.2271H31.0104V33.2271ZM30.4942 32.3752L33.06 30.8205L32.1842 29.3752H30.4942V32.3752ZM27.9852 32.3752L25.4608 33.9961L26.3463 35.3752H27.9852V32.3752ZM38.8074 32.3752H35.8074V35.3752H38.8074V32.3752ZM38.8074 28.3982H41.8074V25.3982H38.8074V28.3982ZM37.8787 28.3982V25.3982H34.8787V28.3982H37.8787ZM42.5884 33.2271V36.2271H44.2266L45.1122 34.8489L42.5884 33.2271ZM43.1358 32.3752L45.6596 33.997L48.6295 29.3752H43.1358V32.3752ZM23.4415 31.6625L23.4394 34.6625H23.4415V31.6625ZM19.3783 28.3982V25.3982H16.3783V28.3982H19.3783ZM19.3783 33.2274H16.3783V36.2274H19.3783V33.2274ZM20.3069 33.2274V36.2274H23.3069V33.2274H20.3069ZM20.3069 29.2498V26.2498H17.3069V29.2498H20.3069ZM23.38 30.8144L23.3755 33.8144H23.38V30.8144ZM20.7616 30.8106L20.766 27.8106L12.7403 27.7987L18.7904 33.0721L20.7616 30.8106ZM23.534 33.2271L21.5628 35.4886L22.4101 36.2271H23.534V33.2271ZM24.8833 33.2271V36.2271H33.1276L26.8114 30.9287L24.8833 33.2271ZM23.0178 31.6622L23.0199 28.6622L14.7667 28.6564L21.0898 33.9606L23.0178 31.6622ZM16.4073 32.3752L16.4118 29.3752H16.4073V32.3752ZM17.9707 30.8144L14.9707 30.8127L14.9707 30.8139L17.9707 30.8144ZM16.4073 29.2495L16.4084 26.2495H16.4073V29.2495ZM13.7249 29.2495V26.2495L13.7226 26.2495L13.7249 29.2495ZM12.1621 30.8144L15.1621 30.8139L15.1621 30.8127L12.1621 30.8144ZM13.7249 32.3752V29.3752L13.7215 29.3752L13.7249 32.3752ZM37.3777 28.3979L39.9061 30.0126L42.8531 25.3979H37.3777V28.3979ZM36.8339 29.2495V32.2495H38.4776L39.3623 30.8642L36.8339 29.2495ZM34.1058 29.2495V26.2495L34.104 26.2495L34.1058 29.2495ZM32.5405 30.8144L29.5405 30.8122V30.8144H32.5405ZM37.4547 32.3752L39.979 33.9964L42.9468 29.3752H37.4547V32.3752ZM36.9076 33.2271V36.2271H38.5463L39.4319 34.8483L36.9076 33.2271ZM45.4015 32.3752V29.3752L45.4002 29.3752L45.4015 32.3752ZM43.8985 31.2382V28.2382H39.9346L41.0113 32.053L43.8985 31.2382ZM47.868 31.2382V34.2382H49.5064L50.392 32.8597L47.868 31.2382ZM48.4151 30.3866L50.9391 32.0081L53.9083 27.3866H48.4151V30.3866ZM43.8985 30.3866L41.0131 29.5651L39.9251 33.3866H43.8985V30.3866ZM45.4015 29.2495V26.2495L45.396 26.2495L45.4015 29.2495ZM48.1261 29.2495V32.2495H49.7578L50.6445 30.8798L48.1261 29.2495ZM48.6774 28.3979L51.1958 30.0282L54.1932 25.3979H48.6774V28.3979ZM48.2034 33.2271V36.2271H49.8416L50.7273 34.8489L48.2034 33.2271ZM48.7508 32.3752L51.2747 33.997L54.2446 29.3752H48.7508V32.3752ZM27.4384 34.5236H29.9162V28.5236H27.4384V34.5236ZM32.4641 29.9399L31.1537 27.8317L26.0579 30.9992L27.3683 33.1073L32.4641 29.9399ZM26.0686 27.8146L23.6637 31.6263L28.7381 34.8279L31.143 31.0163L26.0686 27.8146ZM26.2009 30.2271H25.1063V36.2271H26.2009V30.2271ZM27.6344 34.8423L30.5597 30.2638L25.5036 27.0334L22.5783 31.6119L27.6344 34.8423ZM30.497 30.3579C30.282 30.668 29.9944 30.9207 29.6592 31.0939L26.9044 25.7637C26.369 26.0404 25.9096 26.444 25.5662 26.9393L30.497 30.3579ZM29.6592 31.0939C29.324 31.2671 28.9515 31.3556 28.5742 31.3517L28.6374 25.352C28.0347 25.3457 27.4398 25.487 26.9044 25.7637L29.6592 31.0939ZM28.6058 31.3518C27.9007 31.3518 27.1562 31.0171 26.6874 30.3275L31.6494 26.9543C30.9343 25.9024 29.7658 25.3518 28.6058 25.3518V31.3518ZM26.6419 30.2586L29.5785 34.8448L34.6314 31.6094L31.6948 27.0232L26.6419 30.2586ZM32.1049 30.2271H31.0104V36.2271H32.1049V30.2271ZM33.5761 31.6724L33.06 30.8205L27.9285 33.9299L28.4447 34.7818L33.5761 31.6724ZM30.4942 29.3752H27.9852V35.3752H30.4942V29.3752ZM30.5096 30.7543L29.9628 29.9027L24.914 33.1445L25.4608 33.9961L30.5096 30.7543ZM41.8074 32.3752V28.3982H35.8074V32.3752H41.8074ZM38.8074 25.3982H37.8787V31.3982H38.8074V25.3982ZM34.8787 28.3982V32.7647H40.8787V28.3982H34.8787ZM34.8787 32.7647C34.8787 33.6744 35.2373 34.5547 35.8924 35.2099L40.1351 30.9672C40.613 31.4451 40.8787 32.0941 40.8787 32.7647H34.8787ZM35.8924 35.2099C36.5523 35.8698 37.4386 36.2271 38.353 36.2271V30.2271C39.0052 30.2271 39.6524 30.4845 40.1351 30.9672L35.8924 35.2099ZM38.353 36.2271H42.5884V30.2271H38.353V36.2271ZM45.1122 34.8489L45.6596 33.997L40.6119 30.7534L40.0645 31.6053L45.1122 34.8489ZM43.1358 29.3752H38.8074V35.3752H43.1358V29.3752ZM23.4415 34.6625C25.9902 34.6625 28.0757 32.6011 28.0757 30.0324H22.0757C22.0757 29.2675 22.6965 28.6625 23.4415 28.6625V34.6625ZM28.0757 30.0324C28.0757 27.4741 26.0009 25.3982 23.4415 25.3982V31.3982C22.6865 31.3982 22.0757 30.7871 22.0757 30.0324H28.0757ZM23.4415 25.3982H19.3783V31.3982H23.4415V25.3982ZM16.3783 28.3982V33.2274H22.3783V28.3982H16.3783ZM19.3783 36.2274H20.3069V30.2274H19.3783V36.2274ZM23.3069 33.2274V29.2498H17.3069V33.2274H23.3069ZM20.3069 32.2498H23.38V26.2498H20.3069V32.2498ZM23.38 32.2498C22.1348 32.2498 21.1584 31.2374 21.1584 30.0321H27.1584C27.1584 27.964 25.4886 26.2498 23.38 26.2498V32.2498ZM21.1584 30.0321C21.1584 28.8261 22.1352 27.8144 23.38 27.8144V33.8144C25.4876 33.8144 27.1584 32.101 27.1584 30.0321H21.1584ZM23.3844 27.8144L20.766 27.8106L20.7571 33.8106L23.3755 33.8144L23.3844 27.8144ZM18.7904 33.0721L21.5628 35.4886L25.5052 30.9656L22.7327 28.5491L18.7904 33.0721ZM23.534 36.2271H24.8833V30.2271H23.534V36.2271ZM26.8114 30.9287L24.9458 29.3638L21.0898 33.9606L22.9553 35.5255L26.8114 30.9287ZM23.0157 34.6622L23.4394 34.6625L23.4436 28.6625L23.0199 28.6622L23.0157 34.6622ZM13.6631 30.2271C13.9826 30.2271 14.248 30.4868 14.248 30.8144H8.24805C8.24805 33.8092 10.6776 36.2271 13.6631 36.2271V30.2271ZM14.248 30.8144C14.248 31.1356 13.9888 31.3979 13.6631 31.3979V25.3979C10.6708 25.3979 8.24805 27.8262 8.24805 30.8144H14.248ZM13.6631 31.3979H16.4697V25.3979H13.6631V31.3979ZM16.4697 31.3979C16.1433 31.3979 15.8844 31.1349 15.8844 30.8144H21.8844C21.8844 27.8274 19.4633 25.3979 16.4697 25.3979V31.3979ZM15.8844 30.8144C15.8844 30.4878 16.1496 30.2271 16.4697 30.2271V36.2271C19.457 36.2271 21.8844 33.8077 21.8844 30.8144H15.8844ZM16.4697 30.2271H13.6631V36.2271H16.4697V30.2271ZM16.4027 35.3752C17.0022 35.3761 17.5959 35.2588 18.1501 35.0301L15.8606 29.4841C16.0354 29.4119 16.2227 29.3749 16.4118 29.3752L16.4027 35.3752ZM18.1501 35.0301C18.7042 34.8013 19.2078 34.4656 19.632 34.0421L15.393 29.7958C15.5269 29.6622 15.6857 29.5563 15.8606 29.4841L18.1501 35.0301ZM19.632 34.0421C20.0563 33.6185 20.3929 33.1155 20.6226 32.5618L15.0805 30.2628C15.153 30.0881 15.2592 29.9294 15.393 29.7958L19.632 34.0421ZM20.6226 32.5618C20.8523 32.0081 20.9706 31.4145 20.9707 30.815L14.9707 30.8139C14.9707 30.6248 15.008 30.4375 15.0805 30.2628L20.6226 32.5618ZM20.9707 30.8162C20.971 30.2167 20.8533 29.6231 20.6242 29.0692L15.0797 31.3624C15.0076 31.1881 14.9706 31.0013 14.9707 30.8127L20.9707 30.8162ZM20.6242 29.0692C20.3951 28.5153 20.0591 28.0119 19.6355 27.5878L15.3908 31.8285C15.2575 31.695 15.1518 31.5367 15.0797 31.3624L20.6242 29.0692ZM19.6355 27.5878C19.2118 27.1638 18.7087 26.8273 18.155 26.5977L15.8566 32.14C15.6824 32.0677 15.5241 31.9619 15.3908 31.8285L19.6355 27.5878ZM18.155 26.5977C17.6013 26.3681 17.0078 26.2498 16.4084 26.2495L16.4061 32.2495C16.2175 32.2495 16.0308 32.2122 15.8566 32.14L18.155 26.5977ZM16.4073 26.2495H13.7249V32.2495H16.4073V26.2495ZM13.7226 26.2495C12.5123 26.2504 11.352 26.7321 10.4967 27.5884L14.7422 31.8283C14.4731 32.0977 14.108 32.2492 13.7272 32.2495L13.7226 26.2495ZM10.4967 27.5884C9.64146 28.4448 9.16139 29.6059 9.16208 30.8162L15.1621 30.8127C15.1623 31.1935 15.0113 31.5588 14.7422 31.8283L10.4967 27.5884ZM9.16208 30.815C9.1622 31.4143 9.28043 32.0078 9.51002 32.5614L15.0523 30.2629C15.1247 30.4376 15.162 30.6248 15.1621 30.8139L9.16208 30.815ZM9.51002 32.5614C9.73961 33.115 10.0761 33.6179 10.5001 34.0415L14.7399 29.796C14.8737 29.9296 14.9799 30.0883 15.0523 30.2629L9.51002 32.5614ZM10.5001 34.0415C10.9242 34.465 11.4276 34.8007 11.9815 35.0296L14.2726 29.4842C14.4473 29.5564 14.6062 29.6624 14.7399 29.796L10.5001 34.0415ZM11.9815 35.0296C12.5354 35.2584 13.129 35.3759 13.7283 35.3752L13.7215 29.3752C13.9106 29.375 14.0978 29.412 14.2726 29.4842L11.9815 35.0296ZM13.7249 35.3752H16.4073V29.3752H13.7249V35.3752ZM34.0439 30.2271C34.3615 30.2271 34.6277 30.4852 34.6277 30.8144H28.6277C28.6277 33.8109 31.0598 36.2271 34.0439 36.2271V30.2271ZM34.6277 30.8144C34.6277 31.1375 34.3677 31.3979 34.0439 31.3979V25.3979C31.0535 25.3979 28.6277 27.8242 28.6277 30.8144H34.6277ZM34.0439 31.3979H37.3777V25.3979H34.0439V31.3979ZM34.8493 26.7833L34.3055 27.6348L39.3623 30.8642L39.9061 30.0126L34.8493 26.7833ZM36.8339 26.2495H34.1058V32.2495H36.8339V26.2495ZM34.104 26.2495C32.8941 26.2502 31.7339 26.7311 30.8782 27.5866L35.1205 31.8296C34.8518 32.0983 34.4874 32.2493 34.1075 32.2495L34.104 26.2495ZM30.8782 27.5866C30.0226 28.4421 29.5415 29.6022 29.5405 30.8122L35.5405 30.8167C35.5402 31.1967 35.3892 31.561 35.1205 31.8296L30.8782 27.5866ZM29.5405 30.8144C29.5405 33.3453 31.5962 35.3752 34.1058 35.3752V29.3752C34.8883 29.3752 35.5405 30.01 35.5405 30.8144H29.5405ZM34.1058 35.3752H37.4547V29.3752H34.1058V35.3752ZM34.9305 30.754L34.3834 31.6059L39.4319 34.8483L39.979 33.9964L34.9305 30.754ZM36.9076 30.2271H34.0439V36.2271H36.9076V30.2271ZM45.4002 29.3752C45.7138 29.3751 46.0189 29.4774 46.269 29.6666L42.6492 34.4516C43.4419 35.0514 44.4089 35.3757 45.4029 35.3752L45.4002 29.3752ZM46.269 29.6666C46.5191 29.8558 46.7005 30.1215 46.7857 30.4233L41.0113 32.053C41.2813 33.0097 41.8564 33.852 42.6492 34.4516L46.269 29.6666ZM43.8985 34.2382H47.868V28.2382H43.8985V34.2382ZM50.392 32.8597L50.9391 32.0081L45.8911 28.765L45.344 29.6166L50.392 32.8597ZM48.4151 27.3866H43.8985V33.3866H48.4151V27.3866ZM46.7838 31.2081C46.6985 31.5076 46.5181 31.7712 46.2697 31.9591L42.6499 27.174C41.8592 27.7722 41.2846 28.6115 41.0131 29.5651L46.7838 31.2081ZM46.2697 31.9591C46.0213 32.147 45.7185 32.2489 45.4071 32.2495L45.396 26.2495C44.4045 26.2514 43.4406 26.5759 42.6499 27.174L46.2697 31.9591ZM45.4015 32.2495H48.1261V26.2495H45.4015V32.2495ZM50.6445 30.8798L51.1958 30.0282L46.159 26.7677L45.6077 27.6193L50.6445 30.8798ZM48.6774 25.3979H45.3397V31.3979H48.6774V25.3979ZM45.3397 25.3979C42.3491 25.3979 39.9235 27.8248 39.9235 30.8144H45.9235C45.9235 31.1375 45.6637 31.3979 45.3397 31.3979V25.3979ZM39.9235 30.8144C39.9235 33.8104 42.3553 36.2271 45.3397 36.2271V30.2271C45.6575 30.2271 45.9235 30.4851 45.9235 30.8144H39.9235ZM45.3397 36.2271H48.2034V30.2271H45.3397V36.2271ZM50.7273 34.8489L51.2747 33.997L46.227 30.7534L45.6796 31.6053L50.7273 34.8489ZM48.7508 29.3752H45.4015V35.3752H48.7508V29.3752Z" fill="black" mask="url(#path-2-inside-1_1_192)"/>
</svg>
