<svg width="22" height="23" viewBox="0 0 22 23" fill="none" xmlns="http://www.w3.org/2000/svg">
<path id="Vector" d="M20.4286 13.0714H12.5714V20.9286C12.5714 21.7929 11.8643 22.5 11 22.5C10.1357 22.5 9.42857 21.7929 9.42857 20.9286V13.0714H1.57143C0.707143 13.0714 0 12.3643 0 11.5C0 10.6357 0.707143 9.92857 1.57143 9.92857H9.42857V2.07143C9.42857 1.20714 10.1357 0.5 11 0.5C11.8643 0.5 12.5714 1.20714 12.5714 2.07143V9.92857H20.4286C21.2929 9.92857 22 10.6357 22 11.5C22 12.3643 21.2929 13.0714 20.4286 13.0714Z" fill="black"/>
</svg>
