<svg width="45" height="44" viewBox="0 0 45 44" fill="none" xmlns="http://www.w3.org/2000/svg">
<circle cx="22.5" cy="22" r="22" fill="white"/>
<path d="M31.0547 18.3337C31.0553 16.8609 30.6756 15.413 29.9524 14.13C29.2293 12.847 28.1872 11.7724 26.9269 11.0103C25.6667 10.2482 24.2311 9.82433 22.759 9.77974C21.2869 9.73515 19.8283 10.0714 18.5242 10.7558C17.2202 11.4403 16.1149 12.4498 15.3155 13.6867C14.516 14.9235 14.0494 16.3459 13.9608 17.8159C13.8722 19.286 14.1647 20.7541 14.8098 22.078C15.455 23.4019 16.431 24.5369 17.6434 25.373L13.9453 31.7768L16.7024 31.8904L18.1787 34.221L22.4145 26.8835L22.5 26.8884C22.5428 26.8908 22.5562 26.8847 22.5856 26.8835L26.8214 34.221L28.327 31.9405L31.0547 31.7768L27.3566 25.373C28.4976 24.5874 29.4304 23.5361 30.0746 22.3098C30.7189 21.0835 31.0552 19.7189 31.0547 18.3337ZM16.3895 18.3337C16.3895 17.1251 16.7479 15.9437 17.4193 14.9389C18.0907 13.934 19.0451 13.1508 20.1616 12.6883C21.2782 12.2258 22.5068 12.1048 23.6921 12.3406C24.8774 12.5764 25.9662 13.1583 26.8208 14.0129C27.6754 14.8675 28.2573 15.9562 28.4931 17.1416C28.7289 18.3269 28.6079 19.5555 28.1454 20.6721C27.6829 21.7886 26.8997 22.7429 25.8948 23.4144C24.89 24.0858 23.7086 24.4442 22.5 24.4442C20.8794 24.4442 19.3252 23.8004 18.1792 22.6544C17.0333 21.5085 16.3895 19.9543 16.3895 18.3337Z" fill="#EB1C25"/>
<path d="M22.5003 22C24.5251 22 26.1666 20.3585 26.1666 18.3337C26.1666 16.3088 24.5251 14.6674 22.5003 14.6674C20.4754 14.6674 18.834 16.3088 18.834 18.3337C18.834 20.3585 20.4754 22 22.5003 22Z" fill="#EB1C25"/>
</svg>
