<svg width="25" height="25" viewBox="0 0 25 25" fill="none" xmlns="http://www.w3.org/2000/svg">
<g id="ion:search-outline">
<g id="Group 5">
<path id="Vector" d="M10.8636 3.5C9.40722 3.5 7.98354 3.93187 6.7726 4.74099C5.56167 5.55011 4.61786 6.70015 4.06052 8.04567C3.50319 9.39119 3.35737 10.8718 3.64149 12.3002C3.92562 13.7286 4.62693 15.0406 5.65675 16.0704C6.68657 17.1003 7.99863 17.8016 9.42703 18.0857C10.8554 18.3698 12.336 18.224 13.6815 17.6667C15.027 17.1093 16.1771 16.1655 16.9862 14.9546C17.7953 13.7437 18.2272 12.32 18.2272 10.8636C18.2271 8.91069 17.4512 7.0378 16.0703 5.65688C14.6894 4.27597 12.8165 3.50012 10.8636 3.5Z" stroke="white" stroke-width="1.5" stroke-miterlimit="10"/>
<path id="Vector_2" d="M16.3574 16.3574L21.5001 21.5001" stroke="white" stroke-width="1.5" stroke-miterlimit="10" stroke-linecap="round"/>
</g>
</g>
</svg>
