<svg width="29" height="29" viewBox="0 0 29 29" fill="none" xmlns="http://www.w3.org/2000/svg">
<circle cx="14.2002" cy="14.5" r="14" fill="black"/>
<path d="M14.2002 17.9286C13.2453 17.9286 12.4353 17.596 11.7702 16.9309C11.1045 16.2646 10.7716 15.4543 10.7716 14.5C10.7716 13.5457 11.1045 12.7357 11.7702 12.07C12.4359 11.4043 13.2459 11.0714 14.2002 11.0714C15.1545 11.0714 15.9648 11.4043 16.6311 12.07C17.2973 12.7357 17.6299 13.5457 17.6288 14.5C17.6276 15.4543 17.2951 16.2646 16.6311 16.9309C15.9671 17.5971 15.1568 17.9297 14.2002 17.9286ZM8.2002 14.9286H5.2002V14.0714H8.2002V14.9286ZM23.2002 14.9286H20.2002V14.0714H23.2002V14.9286ZM13.7716 8.5V5.5H14.6288V8.5H13.7716ZM13.7716 23.5V20.5H14.6288V23.5H13.7716ZM9.69677 10.5606L7.84534 8.76229L8.44105 8.12371L10.2505 9.95371L9.69677 10.5606ZM19.9602 20.8763L18.1456 19.0411L18.7045 18.4394L20.5559 20.2377L19.9602 20.8763ZM18.1396 9.99571L19.9379 8.14429L20.5765 8.74L18.7465 10.5494L18.1396 9.99571ZM7.82477 20.26L9.65905 18.4454L10.2282 19.0043L8.44534 20.872L7.82477 20.26Z" fill="white"/>
</svg>
