<svg width="61" height="61" viewBox="0 0 61 61" fill="none" xmlns="http://www.w3.org/2000/svg">
<rect x="0.811523" y="0.789551" width="59.5777" height="59.5777" rx="8.27468" fill="#0056D7"/>
<path d="M34.2051 22.0627V46.1372C34.2051 46.2006 34.1543 46.2514 34.0909 46.2514H31.4219C30.3601 46.2514 29.3417 45.8296 28.5908 45.0789C27.8399 44.3281 27.4179 43.3098 27.4177 42.2479V22.0627C27.4177 22.0324 27.4057 22.0033 27.3843 21.9819C27.3628 21.9605 27.3338 21.9485 27.3035 21.9485H19.0683C19.0532 21.9485 19.0383 21.9455 19.0244 21.9397C19.0105 21.9339 18.9979 21.9255 18.9873 21.9148C18.9767 21.9041 18.9683 21.8914 18.9626 21.8775C18.9569 21.8635 18.954 21.8486 18.9541 21.8335V19.3319C18.9541 18.27 19.3759 17.2516 20.1266 16.5007C20.8774 15.7498 21.8957 15.3278 22.9575 15.3276H42.5545C42.6179 15.3284 42.6687 15.38 42.6687 15.4426V17.9443C42.6687 19.0061 42.2469 20.0245 41.4961 20.7754C40.7454 21.5263 39.7271 21.9483 38.6652 21.9485H34.3192C34.3042 21.9484 34.2892 21.9513 34.2753 21.957C34.2614 21.9626 34.2487 21.971 34.238 21.9817C34.2273 21.9923 34.2188 22.0049 34.213 22.0188C34.2072 22.0327 34.2051 22.0476 34.2051 22.0627Z" stroke="white" stroke-width="2" stroke-linecap="round" stroke-linejoin="round"/>
</svg>
