<svg width="50" height="50" viewBox="0 0 50 50" fill="none" xmlns="http://www.w3.org/2000/svg">
<circle cx="25" cy="25" r="25" fill="#EB1C25"/>
<path d="M38.1438 11.8545C38.2619 11.9728 38.3426 12.1231 38.376 12.2868C38.4093 12.4506 38.3938 12.6205 38.3314 12.7755L28.4071 37.5855C28.3196 37.804 28.1736 37.9941 27.985 38.135C27.7965 38.2758 27.5727 38.3619 27.3384 38.3838C27.1041 38.4056 26.8683 38.3624 26.6569 38.2589C26.4455 38.1554 26.2668 37.9955 26.1405 37.797L20.7204 29.278L12.2014 23.8579C12.0024 23.7316 11.8421 23.5529 11.7383 23.3413C11.6344 23.1298 11.5911 22.8937 11.6129 22.659C11.6348 22.4244 11.7211 22.2003 11.8623 22.0116C12.0034 21.8229 12.1939 21.6768 12.4129 21.5896L37.2229 11.6686C37.3779 11.6062 37.5478 11.5907 37.7115 11.6241C37.8753 11.6574 38.0256 11.7382 38.1438 11.8562V11.8545ZM22.4225 28.78L27.1314 36.1785L35.2035 15.9989L22.4225 28.78ZM33.9977 14.7931L13.8182 22.8653L21.2184 27.5725L33.9977 14.7931Z" fill="white"/>
</svg>
